<svg width="20" height="12" viewBox="0 0 20 12" fill="none" xmlns="http://www.w3.org/2000/svg">
<mask id="path-1-inside-1_14_1089" fill="white">
<path d="M5.65674 11.6569L-0.000120394 6L5.65674 0.343143L11.3136 6L5.65674 11.6569Z"/>
</mask>
<path d="M-0.000120394 6L-0.707227 5.29289L-1.41433 6L-0.707227 6.70711L-0.000120394 6ZM6.36385 10.9498L0.706986 5.29289L-0.707227 6.70711L4.94963 12.364L6.36385 10.9498ZM0.706986 6.70711L6.36385 1.05025L4.94963 -0.363964L-0.707227 5.29289L0.706986 6.70711Z" fill="#5A5A5A" mask="url(#path-1-inside-1_14_1089)"/>
<mask id="path-3-inside-2_14_1089" fill="white">
<path d="M13.6567 11.6569L7.99988 6L13.6567 0.343143L19.3136 6L13.6567 11.6569Z"/>
</mask>
<path d="M7.99988 6L7.29277 5.29289L6.58567 6L7.29277 6.70711L7.99988 6ZM14.3638 10.9498L8.70699 5.29289L7.29277 6.70711L12.9496 12.364L14.3638 10.9498ZM8.70699 6.70711L14.3638 1.05025L12.9496 -0.363964L7.29277 5.29289L8.70699 6.70711Z" fill="#5A5A5A" mask="url(#path-3-inside-2_14_1089)"/>
</svg>
