<svg width="22" height="23" viewBox="0 0 22 23" fill="none" xmlns="http://www.w3.org/2000/svg">
<circle cx="11" cy="11.8181" r="11" fill="url(#paint0_linear_45_18)"/>
<path d="M6.79495 8.63568C7.14516 9.58418 7.63006 10.5039 8.22273 11.3087C8.30354 11.4237 8.4113 11.5099 8.51906 11.5962C8.68069 11.7111 8.81539 11.6824 8.89621 11.4812C8.95009 11.28 9.0309 10.8776 9.0309 10.6764C9.0309 10.1303 9.0309 9.75664 9.00396 9.21053C8.97703 8.86562 8.86927 8.54945 8.38436 8.46322C8.22273 8.43448 8.22273 8.29077 8.33048 8.1758C8.51906 7.91712 8.81539 7.85963 9.11172 7.83089C9.59663 7.80215 10.0815 7.83089 10.5934 7.83089C10.782 7.83089 10.9975 7.85963 11.186 7.88837C11.4554 7.94586 11.5901 8.14706 11.6171 8.40574C11.644 8.54945 11.644 8.69317 11.644 8.83688C11.644 9.44047 11.6171 10.0441 11.5901 10.6189C11.5901 10.8489 11.5901 11.1075 11.644 11.3087C11.6979 11.6249 11.9134 11.7111 12.1289 11.4812C12.3983 11.1938 12.6138 10.8489 12.8563 10.5327C13.2604 9.92909 13.5567 9.26801 13.7992 8.57819C13.9338 8.23328 14.0416 8.14706 14.3918 8.14706C15.0653 8.14706 15.7388 8.14706 16.4123 8.14706C16.52 8.14706 16.6547 8.14706 16.7625 8.20454C16.951 8.26203 17.0049 8.43448 16.978 8.63568C16.8702 9.09556 16.6278 9.49796 16.3853 9.90035C15.9812 10.5327 15.5502 11.1363 15.1192 11.7399C15.0653 11.8261 15.0114 11.9123 14.9845 11.9986C14.8228 12.3147 14.8498 12.4584 15.0653 12.7171C15.4424 13.1195 15.8196 13.4932 16.1698 13.8956C16.4392 14.183 16.6547 14.5279 16.8702 14.8728C17.1396 15.3039 16.978 15.7063 16.4931 15.7926C16.1967 15.8501 14.7151 15.7926 14.6343 15.7926C14.2302 15.7926 13.88 15.6489 13.6106 15.3614C13.2873 15.0453 13.0179 14.7004 12.7216 14.3554C12.6408 14.2405 12.533 14.1542 12.4252 14.068C12.1828 13.8668 11.9403 13.9243 11.8326 14.2117C11.7248 14.4704 11.644 15.1602 11.644 15.2177C11.6171 15.5339 11.4285 15.7351 11.1052 15.7351C10.1624 15.7926 9.24642 15.6776 8.4113 15.189C7.68394 14.7866 7.11822 14.2117 6.63331 13.5219C5.85207 12.4584 5.20553 11.2512 4.63981 10.0441C4.61287 9.98658 4.0202 8.66442 4.0202 8.60694C3.96633 8.40574 4.0202 8.20454 4.18184 8.14706C4.2896 8.11831 6.17534 8.14706 6.22922 8.14706C6.47168 8.14706 6.68719 8.29077 6.79495 8.63568Z" fill="white"/>
<defs>
<linearGradient id="paint0_linear_45_18" x1="1.705" y1="22.9015" x2="21.8407" y2="21.6371" gradientUnits="userSpaceOnUse">
<stop stop-color="#643FD2"/>
<stop offset="1" stop-color="#8CA8E3"/>
</linearGradient>
</defs>
</svg>
