<svg width="22" height="23" viewBox="0 0 22 23" fill="none" xmlns="http://www.w3.org/2000/svg">
<circle cx="11" cy="11.8181" r="11" fill="url(#paint0_linear_2_517)"/>
<path d="M5.05434 11.2596C5.05398 12.3949 5.35191 13.5032 5.91833 14.4801L5 17.8181L8.43134 16.9224C9.37679 17.4356 10.4413 17.7062 11.5244 17.7066H11.5272C15.0945 17.7066 17.9985 14.8165 18 11.2648C18.0006 9.54347 17.3279 7.92486 16.1059 6.70724C14.8837 5.48979 13.2587 4.81882 11.5272 4.81812C7.95933 4.81812 5.05576 7.70782 5.05434 11.2596ZM7.09777 14.3119L6.96965 14.1094C6.43107 13.2569 6.14679 12.2717 6.1472 11.26C6.14837 8.30786 8.5617 5.90605 11.5293 5.90605C12.9664 5.90666 14.3169 6.46438 15.3328 7.47628C16.3485 8.48829 16.9075 9.83355 16.9071 11.2644C16.9058 14.2165 14.4924 16.6186 11.5272 16.6186H11.5251C10.5596 16.6181 9.61266 16.36 8.78686 15.8722L8.59034 15.7561L6.55411 16.2876L7.09777 14.3118V14.3119Z" fill="url(#paint1_linear_2_517)"/>
<path d="M9.77965 8.09685C9.65063 7.83181 9.51484 7.82647 9.39214 7.82182C9.29167 7.81782 9.17681 7.81812 9.06206 7.81812C8.9472 7.81812 8.76058 7.85805 8.60284 8.01723C8.44494 8.17656 8 8.56159 8 9.34469C8 10.1278 8.61717 10.8847 8.70321 10.991C8.78935 11.0971 9.89467 12.7555 11.6452 13.3935C13.1001 13.9237 13.3962 13.8183 13.7119 13.7917C14.0277 13.7652 14.7309 13.4068 14.8744 13.0351C15.018 12.6635 15.018 12.3449 14.9749 12.2783C14.9319 12.212 14.817 12.1722 14.6448 12.0926C14.4725 12.013 13.6258 11.6279 13.4679 11.5748C13.31 11.5217 13.1952 11.4952 13.0804 11.6546C12.9655 11.8137 12.6357 12.1722 12.5352 12.2783C12.4347 12.3847 12.3342 12.398 12.162 12.3184C11.9897 12.2385 11.435 12.0706 10.777 11.5284C10.265 11.1065 9.91933 10.5855 9.81886 10.4261C9.71838 10.267 9.8081 10.1807 9.89446 10.1014C9.97184 10.0301 10.0667 9.91553 10.1529 9.82263C10.2388 9.72967 10.2675 9.66335 10.3249 9.55719C10.3824 9.45094 10.3536 9.35798 10.3106 9.27837C10.2675 9.19875 9.9328 8.41156 9.77965 8.09685Z" fill="white"/>
<defs>
<linearGradient id="paint0_linear_2_517" x1="1.705" y1="22.9015" x2="21.8407" y2="21.6371" gradientUnits="userSpaceOnUse">
<stop stop-color="#643FD2"/>
<stop offset="1" stop-color="#8CA8E3"/>
</linearGradient>
<linearGradient id="paint1_linear_2_517" x1="11.5" y1="17.8181" x2="11.5" y2="4.81812" gradientUnits="userSpaceOnUse">
<stop stop-color="#F9F9F9"/>
<stop offset="1" stop-color="white"/>
</linearGradient>
</defs>
</svg>
