<svg width="13" height="9" viewBox="0 0 13 9" fill="none" xmlns="http://www.w3.org/2000/svg">
<path d="M2.79495 1.63568C3.14516 2.58418 3.63006 3.50394 4.22273 4.30873C4.30354 4.4237 4.4113 4.50993 4.51906 4.59616C4.68069 4.71113 4.81539 4.68239 4.89621 4.48119C4.95009 4.27999 5.0309 3.8776 5.0309 3.6764C5.0309 3.13029 5.0309 2.75664 5.00396 2.21053C4.97703 1.86562 4.86927 1.54945 4.38436 1.46322C4.22273 1.43448 4.22273 1.29077 4.33048 1.1758C4.51906 0.917117 4.81539 0.859632 5.11172 0.83089C5.59663 0.802147 6.08153 0.83089 6.59338 0.83089C6.78196 0.83089 6.99747 0.859632 7.18604 0.888374C7.45544 0.945859 7.59013 1.14706 7.61707 1.40574C7.64401 1.54945 7.64401 1.69317 7.64401 1.83688C7.64401 2.44047 7.61707 3.04406 7.59013 3.61891C7.59013 3.84885 7.59013 4.10754 7.64401 4.30873C7.69789 4.6249 7.9134 4.71113 8.12892 4.48119C8.39831 4.19376 8.61382 3.84885 8.85628 3.53269C9.26037 2.92909 9.5567 2.26801 9.79915 1.57819C9.93385 1.23328 10.0416 1.14706 10.3918 1.14706C11.0653 1.14706 11.7388 1.14706 12.4123 1.14706C12.52 1.14706 12.6547 1.14706 12.7625 1.20454C12.951 1.26203 13.0049 1.43448 12.978 1.63568C12.8702 2.09556 12.6278 2.49796 12.3853 2.90035C11.9812 3.53269 11.5502 4.13628 11.1192 4.73987C11.0653 4.8261 11.0114 4.91233 10.9845 4.99855C10.8228 5.31472 10.8498 5.45843 11.0653 5.71712C11.4424 6.11951 11.8196 6.49316 12.1698 6.89556C12.4392 7.18298 12.6547 7.52789 12.8702 7.87281C13.1396 8.30394 12.978 8.70634 12.4931 8.79257C12.1967 8.85005 10.7151 8.79257 10.6343 8.79257C10.2302 8.79257 9.87997 8.64885 9.61058 8.36143C9.2873 8.04526 9.01791 7.70035 8.72158 7.35544C8.64076 7.24047 8.53301 7.15424 8.42525 7.06802C8.1828 6.86682 7.94034 6.9243 7.83259 7.21173C7.72483 7.47041 7.64401 8.16023 7.64401 8.21772C7.61707 8.53388 7.4285 8.73508 7.10523 8.73508C6.16235 8.79257 5.24642 8.6776 4.4113 8.18897C3.68394 7.78658 3.11822 7.21173 2.63331 6.52191C1.85207 5.45843 1.20553 4.25125 0.639807 3.04406C0.612868 2.98658 0.0202045 1.66442 0.0202045 1.60694C-0.033674 1.40574 0.0202043 1.20454 0.18184 1.14706C0.289597 1.11831 2.17534 1.14706 2.22922 1.14706C2.47168 1.14706 2.68719 1.29077 2.79495 1.63568Z" fill="white"/>
</svg>
