<svg width="13" height="14" viewBox="0 0 13 14" fill="none" xmlns="http://www.w3.org/2000/svg">
<path fill-rule="evenodd" clip-rule="evenodd" d="M0.918328 10.4801C0.351914 9.50322 0.0539805 8.39491 0.0543359 7.2596C0.0557578 3.70782 2.95933 0.818115 6.52722 0.818115C8.25871 0.818823 9.88371 1.48979 11.1059 2.70724C12.3279 3.92486 13.0006 5.54347 13 7.26475C12.9985 10.8165 10.0945 13.7066 6.52722 13.7066H6.52443C5.44126 13.7062 4.37679 13.4356 3.43134 12.9224L0 13.8181L0.918328 10.4801ZM1.96965 10.1094L2.09776 10.3119L2.09777 10.3119L1.55411 12.2876L3.59034 11.7561L3.78686 11.8722C4.61266 12.36 5.55958 12.6181 6.52509 12.6186H6.52722C9.49244 12.6186 11.9058 10.2165 11.9071 7.26435C11.9075 5.83355 11.3485 4.48829 10.3328 3.47628C9.31694 2.46438 7.96636 1.90666 6.52925 1.90605C3.5617 1.90605 1.14837 4.30786 1.1472 7.26C1.14679 8.27165 1.43107 9.25686 1.96965 10.1094ZM4.39214 3.82182C4.51484 3.82647 4.65063 3.83181 4.77965 4.09685C4.86764 4.27765 5.01554 4.6144 5.13365 4.88334C5.22113 5.08252 5.29227 5.24449 5.31063 5.27837C5.35362 5.35798 5.38239 5.45094 5.3249 5.55719C5.31624 5.5732 5.30824 5.58831 5.30059 5.60273C5.25753 5.68396 5.22586 5.74369 5.15294 5.82263C5.12407 5.85374 5.09422 5.88729 5.06438 5.92083C5.00513 5.98742 4.94592 6.05397 4.89446 6.1014C4.8081 6.18072 4.71838 6.26698 4.81886 6.42611C4.91933 6.58548 5.26499 7.1065 5.77698 7.52841C6.32703 7.98163 6.80483 8.1733 7.04751 8.27066C7.09517 8.28977 7.13375 8.30525 7.16204 8.31836C7.33422 8.39798 7.43475 8.38473 7.53517 8.27833C7.63569 8.17218 7.96551 7.81374 8.08036 7.65461C8.19522 7.49523 8.31003 7.52172 8.46793 7.57479C8.62578 7.62792 9.47251 8.013 9.64479 8.09261C9.67832 8.1081 9.70968 8.12209 9.73875 8.13505C9.85903 8.18869 9.94026 8.22492 9.97493 8.27833C10.018 8.3449 10.018 8.66346 9.8744 9.03509C9.73094 9.40678 9.02773 9.76521 8.71192 9.7917C8.68157 9.79426 8.65141 9.79754 8.62037 9.80092C8.32855 9.83269 7.96027 9.87278 6.64523 9.39353C5.0276 8.80396 3.96093 7.34304 3.7403 7.04085C3.72217 7.01602 3.70975 6.99901 3.70321 6.99095L3.70134 6.98865C3.60864 6.87414 3 6.1224 3 5.34469C3 4.61175 3.38976 4.22752 3.56916 4.05067C3.58144 4.03857 3.59273 4.02744 3.60284 4.01723C3.76058 3.85805 3.9472 3.81812 4.06206 3.81812C4.06955 3.81812 4.07704 3.81812 4.08452 3.81812C4.19174 3.8181 4.29822 3.81808 4.39214 3.82182Z" fill="white"/>
</svg>
