<svg width="13" height="14" viewBox="0 0 13 14" fill="none" xmlns="http://www.w3.org/2000/svg">
<path d="M0.0543359 7.2596C0.0539805 8.39491 0.351914 9.50322 0.918328 10.4801L0 13.8181L3.43134 12.9224C4.37679 13.4356 5.44126 13.7062 6.52443 13.7066H6.52722C10.0945 13.7066 12.9985 10.8165 13 7.26475C13.0006 5.54347 12.3279 3.92486 11.1059 2.70724C9.88371 1.48979 8.25871 0.818823 6.52722 0.818115C2.95933 0.818115 0.0557578 3.70782 0.0543359 7.2596ZM2.09777 10.3119L1.96965 10.1094C1.43107 9.25686 1.14679 8.27165 1.1472 7.26C1.14837 4.30786 3.5617 1.90605 6.52925 1.90605C7.96636 1.90666 9.31694 2.46438 10.3328 3.47628C11.3485 4.48829 11.9075 5.83355 11.9071 7.26435C11.9058 10.2165 9.49244 12.6186 6.52722 12.6186H6.52509C5.55958 12.6181 4.61266 12.36 3.78686 11.8722L3.59034 11.7561L1.55411 12.2876L2.09777 10.3118V10.3119Z" fill="url(#paint0_linear_2_511)"/>
<path d="M4.77965 4.09685C4.65063 3.83181 4.51484 3.82647 4.39214 3.82182C4.29167 3.81782 4.17681 3.81812 4.06206 3.81812C3.9472 3.81812 3.76058 3.85805 3.60284 4.01723C3.44494 4.17656 3 4.56159 3 5.34469C3 6.12784 3.61717 6.88465 3.70321 6.99095C3.78935 7.09706 4.89467 8.75552 6.64523 9.39353C8.1001 9.92374 8.39617 9.81829 8.71192 9.7917C9.02773 9.76521 9.73094 9.40678 9.8744 9.03509C10.018 8.66346 10.018 8.3449 9.97493 8.27833C9.93188 8.21201 9.81703 8.17218 9.64479 8.09261C9.47251 8.013 8.62578 7.62792 8.46793 7.57479C8.31003 7.52172 8.19522 7.49523 8.08036 7.65461C7.96551 7.81374 7.63569 8.17218 7.53517 8.27833C7.43475 8.38473 7.33422 8.39798 7.16204 8.31836C6.9897 8.2385 6.43504 8.07062 5.77698 7.52841C5.26499 7.1065 4.91933 6.58548 4.81886 6.42611C4.71838 6.26698 4.8081 6.18072 4.89446 6.1014C4.97184 6.03008 5.06674 5.91553 5.15294 5.82263C5.23881 5.72967 5.26748 5.66335 5.3249 5.55719C5.38239 5.45094 5.35362 5.35798 5.31063 5.27837C5.26748 5.19875 4.9328 4.41156 4.77965 4.09685Z" fill="white"/>
<defs>
<linearGradient id="paint0_linear_2_511" x1="6.5" y1="13.8181" x2="6.5" y2="0.818115" gradientUnits="userSpaceOnUse">
<stop stop-color="#F9F9F9"/>
<stop offset="1" stop-color="white"/>
</linearGradient>
</defs>
</svg>
